<?xml version="1.0" encoding="UTF-8"?>
<svg id="Eule" xmlns="http://www.w3.org/2000/svg" version="1.1" viewBox="0 0 5847.67 812.13">
  <!-- Generator: Adobe Illustrator 29.8.1, SVG Export Plug-In . SVG Version: 2.1.1 Build 2)  -->
  <defs>
    <style>
      .st0 {
        fill: #323230;
      }

      .st1 {
        fill: #293a68;
      }

      .st2 {
        fill: #dc516e;
      }

      .st3 {
        fill: #1d1e1b;
      }

      .st4 {
        isolation: isolate;
      }

      .st5 {
        fill: #fff;
      }

      .st6 {
        fill: #4a96d2;
      }

      .st7 {
        fill: #f3a9b1;
      }

      .st8 {
        fill: #888;
      }
    </style>
  </defs>
  <g class="st4">
    <g class="st4">
      <g class="st4">
        <g class="st4">
          <g class="st4">
            <g class="st4">
              <path class="st1" d="M593.69,596.15v-320c0-10.66,10-16,30-16h17.5c20,0,30,5.34,30,16v134l2,.5,87-141c3.66-6.33,13.66-9.5,30-9.5h23.5c18.66,0,28,2.5,28,7.5,0,3-1.34,6.5-4,10.5l-96.5,148,109.5,168c2.66,4,4,7.5,4,10.5,0,5-9.34,7.5-28,7.5h-29c-16.67,0-26.84-3.16-30.5-9.5l-94-152-2,.5v145c0,10.67-10,16-30,16h-17.5c-20,0-30-5.33-30-16Z"/>
              <path class="st1" d="M874.63,596.15v-158.5c0-14.66-.42-25.91-1.25-33.75-.84-7.83-1.92-16.58-3.25-26.25-1-4.66-1.5-8.16-1.5-10.5,0-5.33,6.75-9.33,20.25-12,13.5-2.66,25.41-4,35.75-4,6,0,10.16,2.25,12.5,6.75,2.33,4.5,4.08,9.42,5.25,14.75,1.16,5.34,1.91,9,2.25,11,6.33-11.66,13.75-20.91,22.25-27.75,8.5-6.83,19.25-10.25,32.25-10.25,10.66,0,18.08,2.75,22.25,8.25,4.16,5.5,6.25,11.75,6.25,18.75s-1.5,15.75-4.5,26.25-6.67,15.75-11,15.75c-2,0-5.5-.66-10.5-2-5-1.33-9.34-2-13-2-9,0-16.92,2.59-23.75,7.75-6.84,5.17-12.25,10.92-16.25,17.25v160.5c0,10.67-10,16-30,16h-14c-20,0-30-5.33-30-16Z"/>
              <path class="st1" d="M1049.53,298.15v-35.5c0-12.33,12.33-18.5,37-18.5s37,6.17,37,18.5v35.5c0,12.67-12.34,19-37,19s-37-6.33-37-19ZM1049.53,596.15v-231.5c0-10.66,10-16,30-16h14c20,0,30,5.34,30,16v231.5c0,10.67-10,16-30,16h-14c-20,0-30-5.33-30-16Z"/>
              <path class="st1" d="M1182.83,605.65c-17.34-6.33-26-14.5-26-24.5,0-6.66,3.16-14.75,9.5-24.25,6.33-9.5,12-14.25,17-14.25,2.66,0,6.33,1.34,11,4,7,3,13.41,5.42,19.25,7.25,5.83,1.84,12.58,2.75,20.25,2.75,9.33,0,16.5-1.83,21.5-5.5,5-3.66,7.5-8.83,7.5-15.5,0-6-1.84-10.83-5.5-14.5-3.67-3.66-7.67-6.5-12-8.5-4.34-2-12.84-5.33-25.5-10-17-6.66-30.75-15.33-41.25-26-10.5-10.66-15.75-27-15.75-49,0-25.66,8.16-45.75,24.5-60.25,16.33-14.5,38.5-21.75,66.5-21.75,17.66,0,34.58,2.5,50.75,7.5,16.16,5,24.25,12.17,24.25,21.5,0,6.34-2.5,14.5-7.5,24.5s-9.67,15-14,15c-1.34,0-6.17-1.75-14.5-5.25-8.34-3.5-17.84-5.25-28.5-5.25-17.67,0-26.5,5.84-26.5,17.5,0,7.34,2.91,13,8.75,17,5.83,4,14.91,8.5,27.25,13.5,2,1,5.16,2.34,9.5,4,4.33,1.67,8,3.34,11,5,13.33,6.34,23.91,14.92,31.75,25.75,7.83,10.84,11.75,25.25,11.75,43.25,0,26-8.67,46.75-26,62.25-17.34,15.5-41.34,23.25-72,23.25-20.67,0-39.67-3.17-57-9.5Z"/>
              <path class="st1" d="M1392.03,579.9c-21.5-23.5-32.25-56.08-32.25-97.75,0-47,10.75-81.5,32.25-103.5s51.25-33,89.25-33,64.25,12,81.75,36,26.25,55,26.25,93c0,4-3.42,9.92-10.25,17.75-6.84,7.84-11.92,11.75-15.25,11.75h-127.5c1.66,19,7.33,32.5,17,40.5,9.66,8,23.16,12,40.5,12,9.33,0,17.83-1.08,25.5-3.25,7.66-2.16,15.66-4.91,24-8.25,5.33-2.66,9-4,11-4,3.33,0,7.08,2.42,11.25,7.25,4.16,4.84,7.66,10.34,10.5,16.5,2.83,6.17,4.25,10.92,4.25,14.25,0,7.67-5.17,14.25-15.5,19.75-10.34,5.5-22.67,9.59-37,12.25-14.34,2.66-26.84,4-37.5,4-44,0-76.75-11.75-98.25-35.25ZM1517.28,454.65c0-15.33-3-27.58-9-36.75-6-9.16-15-13.75-27-13.75-24.67,0-39.67,16.84-45,50.5h81Z"/>
              <path class="st1" d="M1625.32,596.15v-158.5c0-14.66-.42-25.91-1.25-33.75-.84-7.83-1.92-16.58-3.25-26.25-1-4.66-1.5-8.16-1.5-10.5,0-5.33,6.75-9.33,20.25-12,13.5-2.66,25.41-4,35.75-4,6,0,10.16,2.25,12.5,6.75,2.33,4.5,4.08,9.42,5.25,14.75,1.16,5.34,1.91,9,2.25,11,8-10.66,18.66-19.66,32-27,13.33-7.33,27.5-11,42.5-11,25,0,43.5,6.59,55.5,19.75,12,13.17,18,33.59,18,61.25v169.5c0,10.67-10,16-30,16h-14c-20,0-30-5.33-30-16v-158.5c0-10.33-2.34-18.08-7-23.25-4.67-5.16-12.34-7.75-23-7.75-9,0-16.92,2.92-23.75,8.75-6.84,5.84-12.25,12.59-16.25,20.25v160.5c0,10.67-10,16-30,16h-14c-20,0-30-5.33-30-16Z"/>
              <path class="st1" d="M2233.32,365.4c11.83,13.17,17.75,33.59,17.75,61.25v169.5c0,10.67-10,16-30,16h-14c-20,0-30-5.33-30-16v-158.5c0-10.33-2.25-18.08-6.75-23.25-4.5-5.16-12.09-7.75-22.75-7.75-15.34,0-28.5,9.5-39.5,28.5v161c0,10.67-10,16-30,16h-14c-20,0-30-5.33-30-16v-158.5c0-10.33-2.25-18.08-6.75-23.25-4.5-5.16-12.09-7.75-22.75-7.75-9,0-16.84,2.92-23.5,8.75-6.67,5.84-12,12.59-16,20.25v160.5c0,10.67-10,16-30,16h-14c-20,0-30-5.33-30-16v-158.5c0-14.66-.42-25.91-1.25-33.75-.84-7.83-1.92-16.58-3.25-26.25-1-4.66-1.5-8.16-1.5-10.5,0-5.33,6.75-9.33,20.25-12,13.5-2.66,25.41-4,35.75-4,6,0,10.16,2.25,12.5,6.75,2.33,4.5,4.08,9.42,5.25,14.75,1.16,5.34,1.91,9,2.25,11,8-10.66,18.58-19.66,31.75-27,13.16-7.33,27.25-11,42.25-11,17.33,0,31.41,3.09,42.25,9.25,10.83,6.17,18.75,15.75,23.75,28.75,8.33-10.66,19.33-19.66,33-27,13.66-7.33,28.33-11,44-11,25,0,43.41,6.59,55.25,19.75h0Z"/>
              <path class="st1" d="M2305.41,595.15c-11.84-13.33-17.75-31-17.75-53,0-26.66,9.75-48.83,29.25-66.5,19.5-17.66,57.58-26.5,114.25-26.5v-16.5c0-9.66-3.09-16.83-9.25-21.5-6.17-4.66-16.09-7-29.75-7-11.34,0-21.25,1.17-29.75,3.5-8.5,2.34-16.09,5-22.75,8-6.67,3-10.5,4.5-11.5,4.5-3.34,0-7-2.5-11-7.5s-7.5-10.75-10.5-17.25-4.5-11.58-4.5-15.25c0-5.66,4.16-11.16,12.5-16.5,8.33-5.33,19.83-9.66,34.5-13,14.66-3.33,30.83-5,48.5-5,37.66,0,65,7.42,82,22.25,17,14.84,25.5,35.25,25.5,61.25v94c0,15.34.41,27,1.25,35,.83,8,1.91,16.84,3.25,26.5,1,4.34,1.5,8,1.5,11,0,5.34-6.75,9.34-20.25,12-13.5,2.67-25.42,4-35.75,4-6,0-10.17-2.41-12.5-7.25-2.34-4.83-4.09-10.08-5.25-15.75-1.17-5.66-1.92-9.5-2.25-11.5-2,3.67-6,8.42-12,14.25-6,5.84-14.34,11.25-25,16.25-10.67,5-22.84,7.5-36.5,7.5-25.67,0-44.42-6.66-56.25-20ZM2412.66,547.65c8.33-6,14.5-13.5,18.5-22.5v-27.5c-46.67,0-70,12.34-70,37,0,6.67,2.16,12,6.5,16,4.33,4,10.5,6,18.5,6,9.33,0,18.16-3,26.5-9Z"/>
              <path class="st1" d="M2555.21,596.15v-158.5c0-14.66-.42-25.91-1.25-33.75-.84-7.83-1.92-16.58-3.25-26.25-1-4.66-1.5-8.16-1.5-10.5,0-5.33,6.75-9.33,20.25-12,13.5-2.66,25.41-4,35.75-4,6,0,10.16,2.25,12.5,6.75,2.33,4.5,4.08,9.42,5.25,14.75,1.16,5.34,1.91,9,2.25,11,8-10.66,18.66-19.66,32-27,13.33-7.33,27.5-11,42.5-11,25,0,43.5,6.59,55.5,19.75,12,13.17,18,33.59,18,61.25v169.5c0,10.67-10,16-30,16h-14c-20,0-30-5.33-30-16v-158.5c0-10.33-2.34-18.08-7-23.25-4.67-5.16-12.34-7.75-23-7.75-9,0-16.92,2.92-23.75,8.75-6.84,5.84-12.25,12.59-16.25,20.25v160.5c0,10.67-10,16-30,16h-14c-20,0-30-5.33-30-16Z"/>
              <path class="st1" d="M2825.96,595.15c-11.84-13.33-17.75-31-17.75-53,0-26.66,9.75-48.83,29.25-66.5,19.5-17.66,57.58-26.5,114.25-26.5v-16.5c0-9.66-3.09-16.83-9.25-21.5-6.17-4.66-16.09-7-29.75-7-11.34,0-21.25,1.17-29.75,3.5-8.5,2.34-16.09,5-22.75,8-6.67,3-10.5,4.5-11.5,4.5-3.34,0-7-2.5-11-7.5s-7.5-10.75-10.5-17.25-4.5-11.58-4.5-15.25c0-5.66,4.16-11.16,12.5-16.5,8.33-5.33,19.83-9.66,34.5-13,14.66-3.33,30.83-5,48.5-5,37.66,0,65,7.42,82,22.25,17,14.84,25.5,35.25,25.5,61.25v94c0,15.34.41,27,1.25,35,.83,8,1.91,16.84,3.25,26.5,1,4.34,1.5,8,1.5,11,0,5.34-6.75,9.34-20.25,12-13.5,2.67-25.42,4-35.75,4-6,0-10.17-2.41-12.5-7.25-2.34-4.83-4.09-10.08-5.25-15.75-1.17-5.66-1.92-9.5-2.25-11.5-2,3.67-6,8.42-12,14.25-6,5.84-14.34,11.25-25,16.25-10.67,5-22.84,7.5-36.5,7.5-25.67,0-44.42-6.66-56.25-20ZM2933.21,547.65c8.33-6,14.5-13.5,18.5-22.5v-27.5c-46.67,0-70,12.34-70,37,0,6.67,2.16,12,6.5,16,4.33,4,10.5,6,18.5,6,9.33,0,18.16-3,26.5-9Z"/>
              <path class="st1" d="M3052.31,648.15c0-13,3.91-24.5,11.75-34.5,7.83-10,19.08-17.83,33.75-23.5l.5-2c-7-3.33-12.34-8.33-16-15-3.67-6.66-5.5-14.16-5.5-22.5s2.58-16.08,7.75-23.25c5.16-7.16,12.58-13.25,22.25-18.25-27-15-40.5-39.83-40.5-74.5,0-30.33,9.91-52.75,29.75-67.25,19.83-14.5,45.75-21.75,77.75-21.75,13,0,25.83,1.34,38.5,4h80.5c5.33,0,9.16,2,11.5,6,2.33,4,3.5,10.34,3.5,19v8.5c0,15.67-4,23.5-12,23.5-2.67,0-6.17-.16-10.5-.5-4.34-.33-8-.83-11-1.5l-1,2c2.33,3,4.25,7.25,5.75,12.75s2.25,10.59,2.25,15.25c0,29.67-9.42,51.84-28.25,66.5-18.84,14.67-43.42,22-73.75,22-20.34,0-30.5,4.5-30.5,13.5,0,5.67,3.5,9.59,10.5,11.75,7,2.17,19,4.59,36,7.25,12,1.34,21.16,2.67,27.5,4,23.66,4.67,42.5,12.25,56.5,22.75s21,27.09,21,49.75c0,17-5.34,31.91-16,44.75-10.67,12.83-25.75,22.75-45.25,29.75s-42.09,10.5-67.75,10.5c-79.34,0-119-23-119-69ZM3215.31,652.15c8.66-4.34,13-10.34,13-18s-5.59-13.25-16.75-16.75c-11.17-3.5-31.25-6.25-60.25-8.25-8.34,3-14.92,6.91-19.75,11.75-4.84,4.83-7.25,9.91-7.25,15.25,0,7,4.25,12.5,12.75,16.5s21.75,6,39.75,6c17,0,29.83-2.17,38.5-6.5ZM3200.81,460.9c7-5.83,10.5-14.58,10.5-26.25s-3.5-20.91-10.5-26.75c-7-5.83-16-8.75-27-8.75s-20,2.92-27,8.75c-7,5.84-10.5,14.75-10.5,26.75s3.5,20.42,10.5,26.25c7,5.84,16,8.75,27,8.75s20-2.91,27-8.75Z"/>
              <path class="st1" d="M3352.85,579.9c-21.5-23.5-32.25-56.08-32.25-97.75,0-47,10.75-81.5,32.25-103.5s51.25-33,89.25-33,64.25,12,81.75,36,26.25,55,26.25,93c0,4-3.42,9.92-10.25,17.75-6.84,7.84-11.92,11.75-15.25,11.75h-127.5c1.66,19,7.33,32.5,17,40.5,9.66,8,23.16,12,40.5,12,9.33,0,17.83-1.08,25.5-3.25,7.66-2.16,15.66-4.91,24-8.25,5.33-2.66,9-4,11-4,3.33,0,7.08,2.42,11.25,7.25,4.16,4.84,7.66,10.34,10.5,16.5,2.83,6.17,4.25,10.92,4.25,14.25,0,7.67-5.17,14.25-15.5,19.75-10.34,5.5-22.67,9.59-37,12.25-14.34,2.66-26.84,4-37.5,4-44,0-76.75-11.75-98.25-35.25ZM3478.1,454.65c0-15.33-3-27.58-9-36.75-6-9.16-15-13.75-27-13.75-24.67,0-39.67,16.84-45,50.5h81Z"/>
              <path class="st1" d="M3928.4,365.4c11.83,13.17,17.75,33.59,17.75,61.25v169.5c0,10.67-10,16-30,16h-14c-20,0-30-5.33-30-16v-158.5c0-10.33-2.25-18.08-6.75-23.25-4.5-5.16-12.09-7.75-22.75-7.75-15.34,0-28.5,9.5-39.5,28.5v161c0,10.67-10,16-30,16h-14c-20,0-30-5.33-30-16v-158.5c0-10.33-2.25-18.08-6.75-23.25-4.5-5.16-12.09-7.75-22.75-7.75-9,0-16.84,2.92-23.5,8.75-6.67,5.84-12,12.59-16,20.25v160.5c0,10.67-10,16-30,16h-14c-20,0-30-5.33-30-16v-158.5c0-14.66-.42-25.91-1.25-33.75-.84-7.83-1.92-16.58-3.25-26.25-1-4.66-1.5-8.16-1.5-10.5,0-5.33,6.75-9.33,20.25-12,13.5-2.66,25.41-4,35.75-4,6,0,10.16,2.25,12.5,6.75,2.33,4.5,4.08,9.42,5.25,14.75,1.16,5.34,1.91,9,2.25,11,8-10.66,18.58-19.66,31.75-27,13.16-7.33,27.25-11,42.25-11,17.33,0,31.41,3.09,42.25,9.25,10.83,6.17,18.75,15.75,23.75,28.75,8.33-10.66,19.33-19.66,33-27,13.66-7.33,28.33-11,44-11,25,0,43.41,6.59,55.25,19.75h0Z"/>
              <path class="st1" d="M4016.89,579.9c-21.5-23.5-32.25-56.08-32.25-97.75,0-47,10.75-81.5,32.25-103.5s51.25-33,89.25-33,64.25,12,81.75,36,26.25,55,26.25,93c0,4-3.42,9.92-10.25,17.75-6.84,7.84-11.92,11.75-15.25,11.75h-127.5c1.66,19,7.33,32.5,17,40.5,9.66,8,23.16,12,40.5,12,9.33,0,17.83-1.08,25.5-3.25,7.66-2.16,15.66-4.91,24-8.25,5.33-2.66,9-4,11-4,3.33,0,7.08,2.42,11.25,7.25,4.16,4.84,7.66,10.34,10.5,16.5,2.83,6.17,4.25,10.92,4.25,14.25,0,7.67-5.17,14.25-15.5,19.75-10.34,5.5-22.67,9.59-37,12.25-14.34,2.66-26.84,4-37.5,4-44,0-76.75-11.75-98.25-35.25h0ZM4142.14,454.65c0-15.33-3-27.58-9-36.75-6-9.16-15-13.75-27-13.75-24.67,0-39.67,16.84-45,50.5h81Z"/>
              <path class="st1" d="M4250.19,596.15v-158.5c0-14.66-.42-25.91-1.25-33.75-.84-7.83-1.92-16.58-3.25-26.25-1-4.66-1.5-8.16-1.5-10.5,0-5.33,6.75-9.33,20.25-12,13.5-2.66,25.41-4,35.75-4,6,0,10.16,2.25,12.5,6.75,2.33,4.5,4.08,9.42,5.25,14.75,1.16,5.34,1.91,9,2.25,11,8-10.66,18.66-19.66,32-27,13.33-7.33,27.5-11,42.5-11,25,0,43.5,6.59,55.5,19.75,12,13.17,18,33.59,18,61.25v169.5c0,10.67-10,16-30,16h-14c-20,0-30-5.33-30-16v-158.5c0-10.33-2.34-18.08-7-23.25-4.67-5.16-12.34-7.75-23-7.75-9,0-16.92,2.92-23.75,8.75-6.84,5.84-12.25,12.59-16.25,20.25v160.5c0,10.67-10,16-30,16h-14c-20,0-30-5.33-30-16Z"/>
              <path class="st1" d="M4521.68,534.15v-126h-8c-5.34,0-9.17-2-11.5-6-2.34-4-3.5-10.33-3.5-19v-8.5c0-8.66,1.16-15,3.5-19,2.33-4,6.16-6,11.5-6h8l6.5-47.5c1.66-10.66,10.66-16,27-16h15.5c16.66,0,25,5.34,25,16v47.5h24.5c5.33,0,9.16,2,11.5,6,2.33,4,3.5,10.34,3.5,19v8.5c0,8.67-1.17,15-3.5,19-2.34,4-6.17,6-11.5,6h-24.5v127c0,7.67,1.41,13.17,4.25,16.5,2.83,3.34,7.41,5,13.75,5,1.66,0,3.91-.33,6.75-1,2.83-.66,5.08-1,6.75-1,3,0,5.66,2.5,8,7.5,2.33,5,4.16,10.5,5.5,16.5,1.33,6,2,10,2,12,0,16.34-16,24.5-48,24.5-48.67,0-73-27-73-81Z"/>
            </g>
          </g>
        </g>
      </g>
    </g>
  </g>
  <g>
    <g>
      <path class="st6" d="M433.96,579.41v.39c0,.33-.13.74-.39,1.09-.29.39-.73.7-1.1.83-.05.02-.1.03-.15.04l-6.12,1.03-.48.08c-.61.1-1.49-.17-2.23-.6-.59-.34-1.09-.78-1.31-1.23l-1.81-3.76-37.79-78.61c-2.19-4.56-6.01-7.45-10.49-7.93-.44-.05-.87-.07-1.31-.07-4.01,0-7.82,1.99-10.63,5.58l-19.29,24.7-35.61,45.58-8.14,10.42-2.61-3.22-24.75-30.61-5.1-6.3-5.09-6.3-11.95-14.77c-5.55-6.86-15.68-8.45-23.07-3.63l-36.33,23.72-21.96,14.33h0l-.27.18c-2.37,1.55-7.45,2.73-10.25,2.4l-1.19-.14-3.88-.47,41.91-63.63c3.03-4.6,6.49-12.38,7.88-17.71l62.29-238.16c1.33-5.1,2.5-13.23,2.66-18.51l1.84-60.68,49.47,35.65c5.11,3.68,13.72,6.49,20.03,6.53l26.3.17h47.58c3.26,0,5.6,2.11,6.47,3.67l3.19,5.76h-4.76c-18.07,0-34.35,8.93-45.63,23.12-7.99,1.7-30.74,6.62-47.22,11.01-20.23,5.4-32.31,19.74-32.31,38.38,0,13.02,6.07,24.13,16.57,31.37l-35.21,40.86c-2.39,2.77-7.51,6.86-10.75,8.58l-15.18,8.04c-3.91,2.07-5.39,6.91-3.32,10.82,1.7,3.21,5.27,4.78,8.66,4.08.73-.14,1.46-.39,2.15-.76l15.18-8.05c5.05-2.67,11.66-7.95,15.38-12.27l38.28-44.43,11.66-13.53,2.19-2.54c1.04-1.15,2.46-1.85,3.99-2l.51-.05c2.73-.26,5.26,1.27,6.31,3.8.54,1.34.61,2.81.19,4.18l-.09.27-5.33,14.86-28.65,79.8c-1.06,2.96-4.44,7.52-6.95,9.4l-42.43,31.78-2.77,2.07c-.14.1-.27.21-.4.31-3.26,2.56-4.01,7.15-1.79,10.6.12.19.24.37.38.55.03.04.06.08.09.11.07.09.14.18.22.26.31.36.65.69,1.01.98.24.2.49.38.75.54.38.24.77.45,1.18.62.99.41,2.04.62,3.11.62,1.67,0,3.35-.52,4.79-1.59l45.45-34.04c4.98-3.73,10.32-10.95,12.42-16.8l18.51-51.58,42.46,37.95c3.01,2.69,6.77,4.13,10.72,4.13.43,0,.87-.01,1.3-.05,4.42-.35,8.4-2.45,11.22-5.91l19.72-24.21.54,53.1.07,6.94,1.19,125.31h0l.15,15.83.04,3.79.05,4.66.03,3.07h0v.2h0Z"/>
      <path class="st8" d="M353.92,275.53c0,3.72.26,7.38.75,10.95-4.35-3.38-9.91-5.09-15.71-4.54l-.51.05c-5.59.53-10.72,3.13-14.46,7.31-.03.04-.06.07-.09.11l-6.44,7.47c-5.62-3.36-11.11-9.19-11.11-19.13,0-15.77,14.29-21.28,20.43-22.92,9.93-2.64,22.48-5.55,32.42-7.75-3.4,8.7-5.28,18.33-5.28,28.45h0Z"/>
      <path class="st7" d="M376.72,330.42c-.07-.02-.15-.04-.24-.07.04-.01.08-.02.13-.03.04.04.07.07.11.1Z"/>
      <polygon class="st7" points="432.42 419.62 431.88 366.52 431.92 366.47 432.42 419.62"/>
    </g>
    <path class="st1" d="M505.89,345.82c-.32,1.05-.67,2.04-1.05,2.94l-16.66,39.76c-2.13,5.08-6.66,12.29-10.31,16.42l-25.65,28.98c-1.22,1.38-2.44,2.38-3.61,3.11l1.32,136.74v1.2c0,1.54.75,2.99,2.01,3.88.67.47,1.39.9,2.11,1.24l26.4,12.23c7.85,3.63,8.01,8.76,7.41,11.5s-2.91,7.33-11.55,7.33h-59.41c-5.42,0-9.69-2.35-11.72-6.45-2.01-4.06-1.23-8.73,1.9-13.02,1.44-1.97,1.63-5.84-1.23-8.55-11.06-10.54-49.76-46.71-49.76-46.71-1.15-1.09-2.53-2.42-3.98-3.85l-29.62,38c-1.43,1.81-1.13,4.23-.81,5.19l.55,1.63c.83,2.43,4.02,6.08,6.33,7.23l15.31,7.58c7.67,3.81,7.75,8.94,7.12,11.66-.64,2.72-2.99,7.29-11.56,7.29h-53.6c-5.42,0-9.69-2.35-11.72-6.45-2.01-4.06-1.31-8.8,1.9-13.02,1.66-2.18,4.02-4.85,6.49-7.36l-26.79-33.13-33.72,19.34c-4.64,2.66-11.66,4.34-17.54,4.34-1.14,0-2.24-.06-3.27-.19l-56.81-7.16c-5.03-.6-9-3.29-10.9-7.37-1.89-4.09-1.39-8.86,1.4-13.09l44.34-67.34c2.11-3.2,4.81-9.25,5.78-12.95l62.28-238.17c1.02-3.91,2.03-10.9,2.15-14.95l2.03-67.22c.16-5.29,2.59-9.47,6.67-11.48,4.08-2.01,8.87-1.39,13.16,1.7l54.79,39.48c2.44,1.75,7.78,3.49,10.78,3.51l10.02.06c0-.22,0-.45.01-.68l1.11-37.68c.23-7.73,4.86-10.59,6.84-11.46,1.98-.87,7.22-2.35,13.07,2.7l50.88,43.98c2.98,2.58,5.39,4.73,6.79,6.5,2.4,3.03,3.84,5.62,5.53,8.68l7.47,13.5h-18.28l-3.19-5.76c-.87-1.56-3.21-3.67-6.47-3.67h-47.58l-26.3-.17c-6.31-.04-14.92-2.85-20.03-6.53l-49.47-35.65-1.84,60.68c-.16,5.28-1.33,13.41-2.66,18.51l-62.29,238.16c-1.39,5.33-4.85,13.11-7.88,17.71l-41.91,63.63,3.88.47,1.19.14c2.8.33,7.88-.85,10.25-2.4l.27-.18h0l21.96-14.33,36.33-23.72c7.39-4.82,17.52-3.23,23.07,3.63l11.95,14.77,5.09,6.3,5.1,6.3,24.75,30.61,2.61,3.22,8.14-10.42,35.61-45.58,19.29-24.7c2.81-3.59,6.62-5.58,10.63-5.58.44,0,.87.02,1.31.07,4.48.48,8.3,3.37,10.49,7.93l37.79,78.61,1.81,3.76c.22.45.72.89,1.31,1.23.74.43,1.62.7,2.23.6l.48-.08,6.12-1.03s.1-.02.15-.04c.52-.23.76-.4,1.05-.85.26-.35.43-.74.43-1.07v-.59l-.03-3.07-.05-4.66-.04-3.79-.15-15.82h0l-1.19-125.32-.07-6.94-.5-53.15-.04.05-19.72,24.21c-2.82,3.46-6.8,5.56-11.22,5.91-.43.04-.87.05-1.3.05-3.95,0-7.71-1.44-10.72-4.13l-42.46-37.95-18.51,51.58c-2.1,5.85-7.44,13.07-12.42,16.8l-45.45,34.04c-1.44,1.07-3.12,1.59-4.79,1.59-1.07,0-2.12-.21-3.11-.62-.41-.17-.8-.38-1.18-.62-.26-.16-.51-.34-.75-.54-.36-.29-.7-.62-1.01-.98-.08-.08-.15-.17-.22-.26-.03-.03-.06-.07-.09-.11-.14-.18-.26-.36-.38-.55-2.22-3.45-1.47-8.04,1.79-10.6.13-.1.26-.21.4-.31l2.77-2.07,42.43-31.78c2.51-1.88,5.89-6.44,6.95-9.4l28.65-79.8,5.33-14.86.09-.27c.42-1.37.35-2.84-.19-4.18-1.05-2.53-3.58-4.06-6.31-3.8l-.51.05c-1.53.15-2.95.85-3.99,2l-2.19,2.54-11.66,13.53-38.28,44.43c-3.72,4.32-10.33,9.6-15.38,12.27l-15.18,8.05c-.69.37-1.42.62-2.15.76-3.39.7-6.96-.87-8.66-4.08-2.07-3.91-.59-8.75,3.32-10.82l15.18-8.04c3.24-1.72,8.36-5.81,10.75-8.58l35.21-40.86,10.54-12.24,6.44-7.47s.06-.07.09-.11c3.74-4.18,8.87-6.78,14.46-7.31l.51-.05c5.8-.55,11.36,1.16,15.71,4.54h0c2.97,2.32,5.37,5.41,6.89,9.1,1.88,4.56,2.18,9.58.89,14.29-.08.28-.16.56-.25.84-.08.27-.17.54-.27.81l-3.8,10.59-1.04,2.9c2.93.77,19.64,5.13,19.71,5.15,10.58,9.79,24.06,15.66,38.71,15.66h54.49c6.36,0,12.5-1.11,18.28-3.15.5.18,1.01.36,1.52.52,2.55.87,5.17,1.53,7.85,1.96,2.51.42,5.07.65,7.67.66.13.01.27.01.41.01h.15Z"/>
    <g>
      <path class="st0" d="M633.14,275.52c0,38.56-26.09,69.97-58.28,70.28-.13.01-.27.01-.41.01h-68.71c-.14,0-.28,0-.41-.01-2.6-.01-5.16-.24-7.67-.66-2.68-.43-5.3-1.09-7.85-1.96-.51-.16-1.02-.34-1.52-.52-5.78,2.04-11.92,3.15-18.28,3.15h-54.49c-14.65,0-28.13-5.87-38.71-15.66,0,0-16.78-4.38-19.71-5.15l1.04-2.9,3.8-10.59c.1-.27.19-.54.27-.81.09-.28.17-.56.25-.84,1.29-4.71.99-9.73-.89-14.29-1.52-3.69-3.92-6.78-6.89-9.09h0c-.49-3.58-.75-7.24-.75-10.96,0-10.12,1.88-19.75,5.28-28.45-9.94,2.2-22.49,5.11-32.42,7.75-6.14,1.64-20.43,7.15-20.43,22.92,0,9.94,5.49,15.77,11.11,19.13l-10.54,12.24c-10.5-7.24-16.57-18.35-16.57-31.37,0-18.64,12.08-32.98,32.31-38.38,16.48-4.39,39.23-9.31,47.22-11.01,11.28-14.19,27.56-23.12,45.63-23.12h54.96c6.19.05,12.17,1.15,17.81,3.14,5.51-2.04,11.37-3.15,17.45-3.15h69.07c32.21.28,58.33,31.7,58.33,70.28h0v.02h0Z"/>
      <path class="st8" d="M537.09,221.24c-5.47,5.38-10.11,11.92-13.67,19.3-3.73-7.38-8.6-13.93-14.33-19.3h28,0Z"/>
      <path class="st5" d="M415.53,329.82c-12.63,0-24.07-6.14-32.33-16.06-8.2-9.82-13.26-23.33-13.26-38.23,0-13.54,4.19-25.95,11.1-35.47.01,0,.01-.02.03-.04,8.37-11.49,20.71-18.78,34.46-18.78h15.41c-.56.52-1.12,1.06-1.66,1.61-12.79,12.89-20.86,31.73-20.86,52.68s8.78,41.39,22.52,54.29h-15.41,0Z"/>
      <path class="st8" d="M509.09,329.82c5.73-5.37,10.6-11.92,14.33-19.3,3.56,7.38,8.2,13.92,13.67,19.3h-28"/>
      <path class="st5" d="M574.46,329.82h-.08c-23.58,0-42.77-24.35-42.77-54.29s19.19-54.29,42.77-54.29,42.77,24.36,42.77,54.29-19.14,54.23-42.69,54.29Z"/>
      <path class="st8" d="M430.94,329.82h-15.41c-12.63,0-24.07-6.14-32.33-16.06-8.2-9.82-13.26-23.33-13.26-38.23,0-13.54,4.19-25.95,11.1-35.47.01,0,.01-.02.03-.04,8.37-11.49,20.71-18.78,34.46-18.78h15.41c-.56.52-1.12,1.06-1.66,1.61-12.79,12.89-20.86,31.73-20.86,52.68s8.78,41.39,22.52,54.29h0Z"/>
    </g>
    <g>
      <path class="st5" d="M488.46,225.88c-5.62-2.97-11.84-4.63-18.38-4.64h-.06c-.54,0-1.08,0-1.61.04-7.95.32-15.39,3.09-21.81,7.68-2.85,2.04-5.5,4.44-7.9,7.15-3.06,3.45-5.72,7.39-7.89,11.73h0c-4.06,8.12-6.39,17.59-6.39,27.69s2.54,20.38,6.92,28.71h0c2.25,4.29,4.98,8.16,8.11,11.53h0c2.46,2.66,5.17,5,8.07,6.97,1.39.94,2.82,1.79,4.29,2.56,2.66,1.38,5.45,2.48,8.34,3.23,2.67.71,5.43,1.14,8.26,1.25.53.03,1.07.04,1.61.04.21,0,.42,0,.62-.01,6.33-.1,12.36-1.74,17.82-4.63.91-.48,1.8-.99,2.67-1.54,2.63-1.64,5.11-3.59,7.41-5.79,2.63-2.51,5.01-5.36,7.11-8.49,6.23-9.28,9.96-21.05,9.96-33.83,0-22.12-11.17-41.2-27.15-49.65h0Z"/>
      <path class="st2" d="M491.27,292.03c-4.06,9.04-11.37,15.25-19.82,15.89-.19.01-.37.02-.56.03-.29.01-.58.02-.87.02-9.24,0-17.3-6.67-21.52-16.54-.5-1.14-.93-2.32-1.31-3.54-1.2-3.81-1.86-7.98-1.86-12.36,0-2.41.2-4.76.59-7.02.33.6.7,1.16,1.1,1.69h0c.04.07.08.12.12.17,2.43,3.19,5.78,5.16,9.48,5.16,2.32,0,4.5-.77,6.4-2.13h0c4.17-2.99,7-8.81,7-15.5,0-3.12-.62-6.05-1.7-8.59-.91-2.14-2.14-4-3.62-5.46,1.72-.5,3.49-.76,5.32-.76.48,0,.96.02,1.43.05,12.96.98,23.25,15.11,23.25,32.39,0,6.03-1.25,11.67-3.43,16.5h0Z"/>
    </g>
    <g>
      <path class="st5" d="M574.38,221.24c-23.58,0-42.77,24.36-42.77,54.29s19.19,54.29,42.77,54.29h.08c23.55-.06,42.69-24.38,42.69-54.29s-19.18-54.29-42.77-54.29h0ZM575.56,307.97c-13.63,0-24.68-14.52-24.68-32.44,0-1.88.12-3.73.36-5.52,2.44,3.4,5.9,5.52,9.74,5.52,7.4,0,13.4-7.89,13.4-17.63,0-5.57-1.97-10.54-5.04-13.77,1.99-.68,4.07-1.04,6.22-1.04,13.63,0,24.68,14.53,24.68,32.44s-11.05,32.44-24.68,32.44Z"/>
      <path class="st5" d="M600.24,275.53c0,17.92-11.05,32.44-24.68,32.44s-24.68-14.52-24.68-32.44c0-1.88.12-3.73.36-5.52,2.44,3.4,5.9,5.52,9.74,5.52,7.4,0,13.4-7.89,13.4-17.63,0-5.57-1.97-10.54-5.04-13.77,1.99-.68,4.07-1.04,6.22-1.04,13.63,0,24.68,14.53,24.68,32.44Z"/>
    </g>
    <path class="st3" d="M600.24,275.53c0,17.92-11.05,32.44-24.68,32.44s-24.68-14.52-24.68-32.44c0-1.88.12-3.73.36-5.52,2.44,3.4,5.9,5.52,9.74,5.52,7.4,0,13.4-7.89,13.4-17.63,0-5.57-1.97-10.54-5.04-13.77,1.99-.68,4.07-1.04,6.22-1.04,13.63,0,24.68,14.53,24.68,32.44Z"/>
    <path class="st3" d="M494.7,275.53c0,6.03-1.25,11.67-3.43,16.5-4.06,9.04-11.37,15.25-19.82,15.89-.19.01-.37.02-.56.03-.29.01-.58.02-.87.02-9.24,0-17.3-6.67-21.52-16.54-.5-1.14-.93-2.32-1.31-3.54-1.2-3.81-1.86-7.98-1.86-12.36,0-2.41.2-4.76.59-7.02.33.6.7,1.16,1.1,1.69h0c.04.07.08.12.12.17,2.43,3.19,5.78,5.16,9.48,5.16,2.32,0,4.5-.77,6.4-2.13h0c4.17-2.99,7-8.81,7-15.5,0-3.12-.62-6.05-1.7-8.59-.91-2.14-2.14-4-3.62-5.46,1.72-.5,3.49-.76,5.32-.76.48,0,.96.02,1.43.05,12.96.98,23.25,15.11,23.25,32.39h0Z"/>
  </g>
</svg>